<?xml version="1.0" encoding="UTF-8" standalone="no"?><!DOCTYPE svg PUBLIC "-//W3C//DTD SVG 1.1//EN" "http://www.w3.org/Graphics/SVG/1.1/DTD/svg11.dtd"><svg width="0.9em" height="0.9em" viewBox="0 0 13 13" version="1.1" xmlns="http://www.w3.org/2000/svg" xmlns:xlink="http://www.w3.org/1999/xlink" xml:space="preserve" xmlns:serif="http://www.serif.com/" style="fill-rule:evenodd;clip-rule:evenodd;stroke-linejoin:round;stroke-miterlimit:2;"><path d="M12.25,1.202c0,-0.252 -0.1,-0.494 -0.279,-0.673c-0.179,-0.179 -0.421,-0.279 -0.673,-0.279c-2.246,0 -7.854,0 -10.098,0c-0.525,0 -0.95,0.425 -0.95,0.95l0,10.037c0,0.269 0.107,0.526 0.297,0.716c0.19,0.19 0.447,0.297 0.716,0.297l10.015,0c0.537,0 0.972,-0.435 0.972,-0.972c0,-2.259 0,-7.837 0,-10.076Zm-0.892,7.084l-0.363,0.028c-0.032,-0.143 -0.078,-0.247 -0.137,-0.312c-0.099,-0.104 -0.22,-0.156 -0.365,-0.156c-0.116,0 -0.218,0.033 -0.306,0.098c-0.114,0.083 -0.205,0.205 -0.271,0.366c-0.066,0.161 -0.101,0.39 -0.103,0.687c0.087,-0.134 0.195,-0.233 0.322,-0.298c0.127,-0.065 0.26,-0.097 0.399,-0.097c0.243,0 0.45,0.089 0.62,0.268c0.171,0.179 0.257,0.41 0.257,0.694c0,0.186 -0.041,0.359 -0.121,0.519c-0.08,0.16 -0.191,0.283 -0.331,0.368c-0.14,0.085 -0.3,0.127 -0.478,0.127c-0.304,0 -0.552,-0.111 -0.743,-0.335c-0.192,-0.223 -0.288,-0.592 -0.288,-1.105c0,-0.573 0.106,-0.991 0.318,-1.251c0.185,-0.227 0.434,-0.34 0.747,-0.34c0.234,0 0.425,0.065 0.575,0.196c0.149,0.131 0.238,0.312 0.268,0.543Zm-4.644,1.288l0.371,-0.033c0.017,0.149 0.058,0.271 0.122,0.366c0.064,0.095 0.164,0.172 0.299,0.231c0.135,0.059 0.287,0.088 0.456,0.088c0.149,0 0.282,-0.022 0.397,-0.067c0.114,-0.044 0.2,-0.106 0.256,-0.183c0.056,-0.078 0.084,-0.163 0.084,-0.254c0,-0.094 -0.027,-0.175 -0.081,-0.244c-0.054,-0.07 -0.143,-0.128 -0.268,-0.176c-0.079,-0.031 -0.255,-0.079 -0.528,-0.144c-0.273,-0.066 -0.464,-0.128 -0.573,-0.186c-0.142,-0.074 -0.248,-0.166 -0.317,-0.276c-0.07,-0.11 -0.104,-0.233 -0.104,-0.37c0,-0.15 0.042,-0.29 0.127,-0.42c0.085,-0.13 0.209,-0.229 0.373,-0.297c0.163,-0.067 0.345,-0.101 0.545,-0.101c0.22,0 0.414,0.036 0.582,0.106c0.168,0.071 0.297,0.176 0.388,0.313c0.09,0.138 0.139,0.294 0.145,0.468l-0.376,0.028c-0.021,-0.187 -0.089,-0.329 -0.206,-0.425c-0.117,-0.096 -0.289,-0.144 -0.517,-0.144c-0.238,0 -0.411,0.044 -0.52,0.131c-0.108,0.087 -0.163,0.192 -0.163,0.315c0,0.107 0.039,0.194 0.116,0.263c0.075,0.069 0.273,0.14 0.592,0.212c0.319,0.072 0.538,0.135 0.657,0.189c0.173,0.08 0.301,0.181 0.383,0.303c0.082,0.122 0.124,0.263 0.124,0.422c0,0.158 -0.046,0.307 -0.136,0.447c-0.091,0.14 -0.221,0.248 -0.39,0.326c-0.169,0.077 -0.36,0.116 -0.572,0.116c-0.269,0 -0.494,-0.039 -0.676,-0.117c-0.181,-0.078 -0.324,-0.196 -0.427,-0.354c-0.103,-0.157 -0.157,-0.335 -0.163,-0.533Zm-0.478,-1.665l0,-0.35l-2.147,0l0,2.969l2.216,0l0,-0.351l-1.823,0l0,-1.01l1.643,0l0,-0.349l-1.643,0l0,-0.909l1.754,0Zm3.633,1.657c0,0.125 0.027,0.245 0.08,0.36c0.054,0.115 0.128,0.202 0.224,0.262c0.096,0.061 0.197,0.091 0.302,0.091c0.154,0 0.286,-0.063 0.397,-0.187c0.111,-0.124 0.166,-0.293 0.166,-0.506c0,-0.205 -0.055,-0.367 -0.164,-0.485c-0.11,-0.118 -0.247,-0.177 -0.413,-0.177c-0.165,0 -0.305,0.059 -0.419,0.177c-0.115,0.118 -0.173,0.273 -0.173,0.465Z" style="fill:#232323;"/></svg>