<?xml version="1.0" encoding="UTF-8" standalone="no"?><!DOCTYPE svg PUBLIC "-//W3C//DTD SVG 1.1//EN" "http://www.w3.org/Graphics/SVG/1.1/DTD/svg11.dtd"><svg width="0.9em" height="0.9em" viewBox="0 0 13 13" version="1.1" xmlns="http://www.w3.org/2000/svg" xmlns:xlink="http://www.w3.org/1999/xlink" xml:space="preserve" xmlns:serif="http://www.serif.com/" style="fill-rule:evenodd;clip-rule:evenodd;stroke-linejoin:round;stroke-miterlimit:2;"><path d="M0.481,6.25l0,4.771c0,0.551 0.447,0.998 0.998,0.998c2.183,0 7.357,0 9.54,0c0.553,0 1,-0.447 1,-1l0,-9.561c0,-0.259 -0.103,-0.508 -0.286,-0.691c-0.183,-0.183 -0.432,-0.286 -0.691,-0.286l-9.527,0c-0.571,0 -1.034,0.463 -1.034,1.034c0,1.66 0,4.735 0,4.735Zm9.298,-0.46c0.136,0.034 0.27,0.085 0.392,0.155c0.121,0.07 0.221,0.172 0.33,0.261c0.01,0.008 0.252,0.191 0.281,0.271c0.102,0.283 -0.679,0.56 -0.807,0.639c-0.011,0.008 -0.055,-0.04 -0.105,-0.113c-0.205,-0.301 -0.44,-0.346 -0.779,-0.307c-0.27,0.032 -0.444,0.446 -0.286,0.663c0.376,0.515 1.087,0.609 1.595,0.918c0.446,0.271 0.724,0.82 0.711,1.336c-0.005,0.178 -0.046,0.356 -0.105,0.524c-0.391,1.102 -1.953,1.096 -2.815,0.681c-0.01,-0.005 -1.137,-0.656 -0.708,-0.901l0.428,-0.247l0.331,-0.192l0.07,0.103c0.232,0.353 0.622,0.581 1.044,0.547c0.362,-0.029 0.935,-0.394 0.581,-0.824c-0.18,-0.218 -0.549,-0.347 -0.794,-0.462c-0.438,-0.206 -0.738,-0.312 -1.085,-0.668c-0.809,-0.828 -0.2,-2.21 0.846,-2.409c0.203,-0.038 0.676,-0.024 0.875,0.026l0,-0.001Zm-2.709,0.482l0.004,0.472l-1.502,0l0,4.268l-1.062,0l0,-4.268l-1.501,0l0,-0.463l0.012,-0.476c0.005,-0.007 0.919,-0.011 2.027,-0.009l2.016,0.005l0.006,0.471Z" style="fill:#232323;fill-rule:nonzero;"/></svg>