<?xml version="1.0" encoding="UTF-8" standalone="no"?><!DOCTYPE svg PUBLIC "-//W3C//DTD SVG 1.1//EN" "http://www.w3.org/Graphics/SVG/1.1/DTD/svg11.dtd"><svg width="12.5px" height="12.5px" viewBox="0 0 13 13" version="1.1" xmlns="http://www.w3.org/2000/svg" xmlns:xlink="http://www.w3.org/1999/xlink" xml:space="preserve" xmlns:serif="http://www.serif.com/" style="fill-rule:evenodd;clip-rule:evenodd;stroke-linejoin:round;stroke-miterlimit:2;"><path d="M0.125,6.125l0,6l12,0l0,-12l-12,0l0,6Zm9.67,-0.478c0.305,0.076 0.538,0.212 0.751,0.432c0.111,0.119 0.274,0.334 0.288,0.385c0.003,0.015 -0.519,0.366 -0.835,0.562c-0.011,0.008 -0.057,-0.042 -0.109,-0.118c-0.154,-0.225 -0.316,-0.322 -0.563,-0.339c-0.364,-0.025 -0.6,0.166 -0.597,0.484c0,0.093 0.014,0.148 0.052,0.225c0.08,0.165 0.229,0.264 0.695,0.467c0.859,0.369 1.227,0.613 1.455,0.96c0.255,0.386 0.312,1.003 0.139,1.462c-0.19,0.499 -0.663,0.838 -1.327,0.951c-0.206,0.036 -0.694,0.031 -0.915,-0.009c-0.481,-0.086 -0.939,-0.324 -1.221,-0.637c-0.11,-0.121 -0.325,-0.44 -0.312,-0.463c0.006,-0.007 0.055,-0.038 0.111,-0.07l0.445,-0.257l0.345,-0.2l0.073,0.107c0.101,0.154 0.322,0.365 0.455,0.436c0.383,0.202 0.909,0.173 1.168,-0.059c0.11,-0.101 0.156,-0.206 0.156,-0.36c0,-0.139 -0.017,-0.2 -0.09,-0.305c-0.093,-0.133 -0.284,-0.245 -0.825,-0.48c-0.619,-0.266 -0.885,-0.432 -1.129,-0.695c-0.141,-0.152 -0.274,-0.396 -0.33,-0.6c-0.046,-0.17 -0.057,-0.594 -0.021,-0.766c0.128,-0.6 0.579,-1.015 1.231,-1.139c0.211,-0.04 0.703,-0.025 0.91,0.027l0,-0.001Zm-2.817,0.501l0.004,0.491l-1.562,0l0,4.438l-1.105,0l0,-4.438l-1.561,0l0,-0.482l0.013,-0.495c0.005,-0.007 0.956,-0.011 2.108,-0.009l2.097,0.005l0.006,0.49Z" style="fill:#414042;fill-rule:nonzero;"/></svg>